<svg width="628" height="529" viewBox="0 0 628 529" fill="none" xmlns="http://www.w3.org/2000/svg">
<rect x="48.5" y="0.5" width="528" height="201" rx="7.5" fill="#87BDD4" stroke="#121B20"/>
<rect x="56.5" y="8.5" width="514" height="185" fill="url(#paint0_radial_2229_225)" stroke="#121B20"/>
<path d="M323 162.796V193.5H56.5V133.395L131.616 115.486L131.644 115.48L131.671 115.47L198.946 91.0517L264.741 130.928L264.75 130.933L264.76 130.939L323 162.796Z" fill="#3B5D67" stroke="#121B20"/>
<path d="M303.5 193.5V177.721L408.339 130.092L527.824 112.519L570.5 136.44V193.5H303.5Z" fill="#3B5D67" stroke="#121B20"/>
<rect x="138" y="152" width="352.559" height="157.909" rx="8" fill="#121B20"/>
<rect x="143.611" y="156.909" width="341.337" height="148.091" rx="2" fill="#5C9BAF"/>
<rect x="146.5" y="159.5" width="165.5" height="143" rx="1.5" fill="#0D1C26" stroke="#121B20"/>
<rect x="316" y="159.5" width="166" height="143" rx="1.5" fill="#0D1C26" stroke="#121B20"/>
<rect x="152.963" y="165.091" width="115.026" height="2" rx="1" fill="#39637E"/>
<rect x="153" y="263" width="115.026" height="2" rx="1" fill="#395263"/>
<rect x="320.358" y="165.091" width="115.026" height="2" rx="1" fill="#416780"/>
<rect x="152.963" y="214.182" width="58.9157" height="2" rx="1" fill="#395263"/>
<rect x="320.358" y="214.182" width="58.9157" height="2" rx="1" fill="#416780"/>
<rect x="152.963" y="206" width="105.674" height="2" rx="1" fill="#39637E"/>
<rect x="320.358" y="206" width="105.674" height="2" rx="1" fill="#2B485C"/>
<rect x="152.963" y="255.091" width="98.1929" height="2" rx="1" fill="#395263"/>
<rect x="320.358" y="255.091" width="98.1929" height="2" rx="1" fill="#39637E"/>
<rect x="152.963" y="197.818" width="76.684" height="2" rx="1" fill="#416780"/>
<rect x="320.358" y="197.818" width="76.684" height="2" rx="1" fill="#416780"/>
<rect x="152.963" y="246.909" width="89.7764" height="2" rx="1" fill="#39637E"/>
<rect x="320.358" y="246.909" width="89.7764" height="2" rx="1" fill="#2B485C"/>
<rect x="152.963" y="189.636" width="94.4522" height="2" rx="1" fill="#39637E"/>
<rect x="320.358" y="189.636" width="94.4522" height="2" rx="1" fill="#39637E"/>
<rect x="152.963" y="238.727" width="72.9433" height="2" rx="1" fill="#416780"/>
<rect x="320.358" y="238.727" width="72.9433" height="2" rx="1" fill="#39637E"/>
<rect x="152.963" y="181.455" width="56.1102" height="2" rx="1" fill="#395263"/>
<rect x="153" y="279.364" width="84.1653" height="2" rx="1" fill="#416780"/>
<rect x="153" y="287.545" width="105.674" height="2" rx="1" fill="#416780"/>
<rect x="320.358" y="181.455" width="56.1102" height="2" rx="1" fill="#39637E"/>
<rect x="152.963" y="230.545" width="45.8234" height="2" rx="1" fill="#39637E"/>
<rect x="320.358" y="230.545" width="45.8234" height="2" rx="1" fill="#39637E"/>
<rect x="152.963" y="173.273" width="84.1653" height="2" rx="1" fill="#416780"/>
<rect x="153" y="271.182" width="94.4522" height="2" rx="1" fill="#39637E"/>
<rect x="320.358" y="173.273" width="84.1653" height="2" rx="1" fill="#39637E"/>
<rect x="152.963" y="222.364" width="98.1929" height="2" rx="1" fill="#416780"/>
<rect x="320.358" y="222.364" width="98.1929" height="2" rx="1" fill="#39637E"/>
<rect x="289.062" y="309.591" width="51.3695" height="42.3636" fill="#25343E" stroke="#121B20"/>
<mask id="path-38-inside-1_2229_225" fill="white">
<path d="M25 386C25 384.895 25.8954 384 27 384H160C161.105 384 162 384.895 162 386V529H25V386Z"/>
</mask>
<path d="M25 386C25 384.895 25.8954 384 27 384H160C161.105 384 162 384.895 162 386V529H25V386Z" fill="#516C7D"/>
<path d="M24 386C24 384.343 25.3431 383 27 383H160C161.657 383 163 384.343 163 386H161C161 385.448 160.552 385 160 385H27C26.4477 385 26 385.448 26 386H24ZM162 529H25H162ZM24 529V386C24 384.343 25.3431 383 27 383V385C26.4477 385 26 385.448 26 386V529H24ZM160 383C161.657 383 163 384.343 163 386V529H161V386C161 385.448 160.552 385 160 385V383Z" fill="#121B20" mask="url(#path-38-inside-1_2229_225)"/>
<mask id="path-40-inside-2_2229_225" fill="white">
<path d="M6 373H22V529H6V373Z"/>
</mask>
<path d="M6 373H22V529H6V373Z" fill="#1E2429"/>
<path d="M6 373V372H5V373H6ZM22 373H23V372H22V373ZM6 374H22V372H6V374ZM21 373V529H23V373H21ZM7 529V373H5V529H7Z" fill="#121B20" mask="url(#path-40-inside-2_2229_225)"/>
<mask id="path-42-inside-3_2229_225" fill="white">
<path d="M606 373H622V529H606V373Z"/>
</mask>
<path d="M606 373H622V529H606V373Z" fill="#1E2429"/>
<path d="M606 373V372H605V373H606ZM622 373H623V372H622V373ZM606 374H622V372H606V374ZM621 373V529H623V373H621ZM607 529V373H605V529H607Z" fill="#121B20" mask="url(#path-42-inside-3_2229_225)"/>
<rect x="0.5" y="358.5" width="627" height="15" fill="#3D3424" stroke="#121B20"/>
<path d="M250.5 352C250.5 351.172 251.172 350.5 252 350.5H376C376.828 350.5 377.5 351.172 377.5 352V358.5H250.5V352Z" fill="#202D35" stroke="#121B20"/>
<path d="M64.5 451C64.5 450.172 65.1716 449.5 66 449.5H122C122.828 449.5 123.5 450.172 123.5 451V454.5H64.5V451Z" fill="#324754"/>
<path d="M64.5 451C64.5 450.172 65.1716 449.5 66 449.5H122C122.828 449.5 123.5 450.172 123.5 451V454.5H64.5V451Z" fill="#324754"/>
<path d="M64.5 451C64.5 450.172 65.1716 449.5 66 449.5H122C122.828 449.5 123.5 450.172 123.5 451V454.5H64.5V451Z" fill="#324754"/>
<path d="M64.5 451C64.5 450.172 65.1716 449.5 66 449.5H122C122.828 449.5 123.5 450.172 123.5 451V454.5H64.5V451Z" stroke="#121B20"/>
<path d="M64.5 501C64.5 500.172 65.1716 499.5 66 499.5H122C122.828 499.5 123.5 500.172 123.5 501V504.5H64.5V501Z" fill="#324754"/>
<path d="M64.5 501C64.5 500.172 65.1716 499.5 66 499.5H122C122.828 499.5 123.5 500.172 123.5 501V504.5H64.5V501Z" fill="#324754"/>
<path d="M64.5 501C64.5 500.172 65.1716 499.5 66 499.5H122C122.828 499.5 123.5 500.172 123.5 501V504.5H64.5V501Z" fill="#324754"/>
<path d="M64.5 501C64.5 500.172 65.1716 499.5 66 499.5H122C122.828 499.5 123.5 500.172 123.5 501V504.5H64.5V501Z" stroke="#121B20"/>
<path d="M64.5 401C64.5 400.172 65.1716 399.5 66 399.5H122C122.828 399.5 123.5 400.172 123.5 401V404.5H64.5V401Z" fill="#324754"/>
<path d="M64.5 401C64.5 400.172 65.1716 399.5 66 399.5H122C122.828 399.5 123.5 400.172 123.5 401V404.5H64.5V401Z" fill="#324754"/>
<path d="M64.5 401C64.5 400.172 65.1716 399.5 66 399.5H122C122.828 399.5 123.5 400.172 123.5 401V404.5H64.5V401Z" fill="#324754"/>
<path d="M64.5 401C64.5 400.172 65.1716 399.5 66 399.5H122C122.828 399.5 123.5 400.172 123.5 401V404.5H64.5V401Z" stroke="#121B20"/>
<path d="M524.5 384.5H533.5V421C533.5 425.142 530.142 428.5 526 428.5H524.5V384.5Z" fill="#25343E" stroke="#121B20"/>
<rect x="519.5" y="379.5" width="19" height="5" rx="2.5" fill="#25343E" stroke="#121B20"/>
<mask id="path-51-inside-4_2229_225" fill="white">
<path d="M516 421H525V429H516V421Z"/>
</mask>
<path d="M516 421H525V429H516V421Z" fill="#25343E"/>
<path d="M516 421V420H515V421H516ZM516 429H515V430H516V429ZM516 422H525V420H516V422ZM525 428H516V430H525V428ZM517 429V421H515V429H517Z" fill="#121B20" mask="url(#path-51-inside-4_2229_225)"/>
<path d="M340.5 384.5H349.5V428.5H348C343.858 428.5 340.5 425.142 340.5 421V384.5Z" fill="#25343E" stroke="#121B20"/>
<rect x="335.5" y="379.5" width="19" height="5" rx="2.5" fill="#25343E" stroke="#121B20"/>
<mask id="path-55-inside-5_2229_225" fill="white">
<path d="M349 421H358V429H349V421Z"/>
</mask>
<path d="M349 421H358V429H349V421Z" fill="#25343E"/>
<path d="M358 421H359V420H358V421ZM358 429V430H359V429H358ZM349 422H358V420H349V422ZM357 421V429H359V421H357ZM358 428H349V430H358V428Z" fill="#121B20" mask="url(#path-55-inside-5_2229_225)"/>
<rect x="426.5" y="475.5" width="20" height="29" fill="#25343E" stroke="#121B20"/>
<mask id="path-58-inside-6_2229_225" fill="white">
<path d="M422 504H452V529H422V504Z"/>
</mask>
<path d="M422 504H452V529H422V504Z" fill="#25343E"/>
<path d="M422 504V503H421V504H422ZM452 504H453V503H452V504ZM422 505H452V503H422V505ZM451 504V529H453V504H451ZM423 529V504H421V529H423Z" fill="#121B20" mask="url(#path-58-inside-6_2229_225)"/>
<path d="M357.5 316C357.5 274.855 390.855 241.5 432 241.5H442C483.145 241.5 516.5 274.855 516.5 316V427C516.5 454.338 494.338 476.5 467 476.5H407C379.662 476.5 357.5 454.338 357.5 427V316Z" fill="#242F33" stroke="#121B20"/>
<line x1="26" y1="434.5" x2="162" y2="434.5" stroke="#121B20"/>
<line x1="26" y1="484.5" x2="162" y2="484.5" stroke="#121B20"/>
<defs>
<radialGradient id="paint0_radial_2229_225" cx="0" cy="0" r="1" gradientUnits="userSpaceOnUse" gradientTransform="translate(313.5 101) scale(257.5 222.842)">
<stop stop-color="#7AA6B4"/>
<stop offset="1" stop-color="#4B94AB"/>
</radialGradient>
</defs>
</svg>
